<svg xmlns:xlink="http://www.w3.org/1999/xlink" xmlns="http://www.w3.org/2000/svg" width="293" height="45" viewBox="0 0 293 45" fill="none"><g clip-path="url(#clip0_1400_22134)"><path d="M26.2747 22.6958C26.2366 22.671 26.2038 22.6389 26.1781 22.6014C26.1525 22.5638 26.1346 22.5216 26.1254 22.4771C26.1161 22.4326 26.1158 22.3867 26.1244 22.3421C26.133 22.2974 26.1503 22.2549 26.1754 22.217C26.3506 21.9484 26.5432 22.0594 26.6659 22.0944C31.9208 23.6242 34.0578 20.6989 37.2108 16.5884C38.0341 15.514 38.869 14.3871 39.7449 13.2427C38.6647 12.1976 37.4911 11.094 36.2007 9.88538C26.2747 -0.53112 9.23106 0.5841 0.122455 10.7145C-0.210359 11.0882 0.19836 11.5728 0.595402 11.2692C0.65464 11.2256 0.7171 11.1866 0.782245 11.1524C18.509 0.362224 24.0792 40.3233 50.7277 43.9259C69.2602 46.4366 81.5802 36.2186 85.936 25.008C85.9767 24.9266 85.9836 24.8325 85.9552 24.7461C85.9267 24.6596 85.8653 24.588 85.7842 24.5467C85.6977 24.502 85.5974 24.4923 85.504 24.5194C85.4105 24.5466 85.3311 24.6086 85.2821 24.6927C85.2821 24.7394 80.4475 33.3284 71.2338 33.3284C64.4607 33.3284 56.9228 30.5316 49.2914 22.8184C49.087 23.0345 48.8768 23.2447 48.6725 23.4665C42.9037 29.6616 33.9235 27.2268 26.2747 22.6958Z" fill="#A39382"/><path d="M85.404 21.0199C85.4257 21.0648 85.4567 21.1045 85.495 21.1365C85.5334 21.1684 85.5781 21.1918 85.6262 21.2051C85.6743 21.2183 85.7246 21.2212 85.7739 21.2134C85.8232 21.2056 85.8703 21.1874 85.9119 21.16C85.9724 21.1188 86.0199 21.0612 86.0488 20.994C86.0778 20.9268 86.087 20.8527 86.0754 20.7805C83.156 11.9346 74.2518 0.496313 61.4413 0.928388C49.8804 1.30791 44.205 7.45038 39.75 13.2425C43.1249 16.4714 45.6998 19.0814 48.3565 21.8782C48.6659 22.2052 48.9754 22.5204 49.2907 22.8416C61.0326 10.7727 77.4047 7.59051 85.404 21.0199Z" fill="#FF8F1C"/><path d="M48.3582 21.8783C45.7015 19.064 43.1032 16.4716 39.7517 13.2427C38.8759 14.4104 38.0409 15.514 37.2176 16.5883C34.0647 20.6755 31.9218 23.6241 26.6727 22.0944C26.5501 22.0593 26.3574 21.9484 26.1822 22.217C26.1571 22.2549 26.1398 22.2974 26.1312 22.342C26.1226 22.3866 26.1229 22.4325 26.1322 22.477C26.1414 22.5215 26.1593 22.5638 26.185 22.6013C26.2106 22.6389 26.2434 22.671 26.2815 22.6958C33.9245 27.2267 42.9047 29.6615 48.6735 23.4899C48.8778 23.268 49.088 23.0578 49.2924 22.8417C48.9771 22.5206 48.6676 22.1878 48.3582 21.8783Z" fill="#B15533"/><path d="M104.26 42.0396V36.7205L103.25 36.4927V35.8154H107.057V36.4927L106.047 36.7029V41.8294C106.047 43.2775 106.631 43.9898 108.032 43.9898C109.433 43.9898 110.058 43.2775 110.058 41.8294V36.7205L109.03 36.5044V35.8154H112.014V36.4927L111.115 36.7205V41.8995C111.115 43.7621 110.006 44.9999 107.746 44.9999C105.375 44.9999 104.26 43.8263 104.26 42.0396Z" fill="#A39382"/><path d="M112.35 44.2352L113.272 44.025V39.1204L112.367 38.9102V38.2562L114.644 37.9409L114.802 38.0285V38.7292H114.878C115.525 38.2664 116.29 37.9971 117.085 37.9526C118.253 37.9526 118.912 38.4781 118.912 39.7042V44.025L119.771 44.2352V44.8191H116.483V44.2352L117.283 44.0542V40.1889C117.283 39.3773 116.898 39.1145 116.116 39.1145C115.681 39.1262 115.252 39.207 114.843 39.3539V44.025L115.631 44.206V44.7899H112.344L112.35 44.2352Z" fill="#A39382"/><path d="M120.634 44.235L121.51 44.0248V39.1202L120.547 38.91V38.256L122.958 37.9407L123.122 38.0283V44.0248L123.98 44.235V44.8189H120.634V44.235ZM121.323 36.0606C121.319 35.8773 121.369 35.6967 121.467 35.5419C121.566 35.3871 121.708 35.2653 121.876 35.1919C122.045 35.1184 122.231 35.0968 122.411 35.1297C122.592 35.1626 122.758 35.2486 122.89 35.3766C123.021 35.5047 123.111 35.669 123.149 35.8485C123.186 36.0281 123.169 36.2148 123.1 36.3847C123.031 36.5547 122.913 36.7001 122.761 36.8026C122.609 36.905 122.429 36.9598 122.246 36.9598C122.124 36.9638 122.003 36.9429 121.89 36.8984C121.776 36.8538 121.673 36.7865 121.587 36.7007C121.5 36.6148 121.432 36.5122 121.387 36.3991C121.342 36.286 121.32 36.1649 121.323 36.0431V36.0606Z" fill="#A39382"/><path d="M125.031 38.8518L124.406 38.6649V38.0811H127.53V38.6649L126.765 38.8168L127.477 40.9421C127.828 41.9639 128.312 43.7506 128.312 43.7506H128.365C128.365 43.7506 128.826 41.9989 129.177 40.9421L129.889 38.8168L129.118 38.6649V38.0811H131.512V38.6649L130.887 38.8518L128.727 44.8249H127.285L125.031 38.8518Z" fill="#A39382"/><path d="M131.852 41.3916C131.852 39.2137 133.212 37.9292 135.04 37.9292C137.036 37.9292 137.901 39.1262 137.901 41.5143H133.539C133.586 43.2659 134.362 43.9782 135.623 43.9782C136.288 43.9772 136.948 43.8626 137.574 43.6396V44.3753C136.872 44.8043 136.061 45.0212 135.238 45C132.908 44.9592 131.852 43.5637 131.852 41.3916ZM136.202 40.7669C136.202 39.2663 135.764 38.7642 134.975 38.7642C134.187 38.7642 133.615 39.348 133.527 40.7669H136.202Z" fill="#A39382"/><path d="M138.648 44.2352L139.548 44.025V39.1204L138.648 38.9102V38.2562L140.92 37.9409L141.083 38.0285V39.0036H141.159C141.344 38.7105 141.592 38.4634 141.887 38.2812C142.181 38.0991 142.514 37.9867 142.858 37.9526C142.976 37.9496 143.094 37.9613 143.209 37.9876V39.4415C143.032 39.4038 142.852 39.3862 142.671 39.3889C142.145 39.3506 141.619 39.4556 141.147 39.6926V44.025L142.169 44.2352V44.8191H138.666L138.648 44.2352Z" fill="#A39382"/><path d="M144.22 44.6028L144.109 42.9154H145.044L145.359 43.9138C145.685 44.0907 146.051 44.1811 146.422 44.1766C147.146 44.1766 147.63 43.8262 147.63 43.2132C147.63 42.6001 147.42 42.4132 146.585 42.1622L145.844 41.952C144.676 41.6133 144.144 41.0761 144.144 40.0018C144.144 38.9274 144.956 37.9524 146.749 37.9524C147.426 37.9421 148.101 38.0447 148.745 38.256V39.8266H147.846L147.595 38.9508C147.299 38.8142 146.975 38.7501 146.649 38.764C146.007 38.764 145.482 39.0267 145.482 39.6398C145.482 40.2529 145.738 40.3988 146.614 40.6616L147.379 40.8893C148.652 41.263 149.061 41.8352 149.061 42.8103C149.061 44.0773 148.243 45.0232 146.305 45.0232C145.591 45.0039 144.886 44.8617 144.22 44.6028Z" fill="#A39382"/><path d="M150.017 44.235L150.893 44.0248V39.1202L149.93 38.91V38.256L152.341 37.9407L152.505 38.0283V44.0248L153.369 44.235V44.8189H150.017V44.235ZM150.7 36.0606C150.695 35.8758 150.744 35.6936 150.842 35.5371C150.941 35.3806 151.084 35.2571 151.253 35.1824C151.422 35.1076 151.609 35.085 151.791 35.1175C151.973 35.1499 152.141 35.2359 152.274 35.3645C152.407 35.4931 152.498 35.6584 152.537 35.8393C152.575 36.0201 152.558 36.2083 152.489 36.3796C152.42 36.551 152.301 36.6977 152.147 36.8011C151.994 36.9044 151.814 36.9597 151.629 36.9598C151.507 36.9646 151.385 36.9443 151.271 36.9001C151.157 36.8559 151.053 36.7888 150.966 36.7028C150.879 36.6169 150.81 36.514 150.765 36.4005C150.719 36.287 150.697 36.1654 150.7 36.0431V36.0606Z" fill="#A39382"/><path d="M153.965 41.6017C153.965 39.0151 155.349 37.9291 157.328 37.9291C157.724 37.9267 158.118 37.9858 158.496 38.1043V35.9906L157.521 35.7804V35.144L159.932 34.8462L160.107 34.9338V43.8497L160.995 44.0541V44.6379L158.817 44.9591L158.653 44.8832V44.1358H158.578C158.35 44.4087 158.064 44.6263 157.74 44.772C157.417 44.9177 157.064 44.9877 156.709 44.9766C155.454 44.9591 153.965 44.2117 153.965 41.6017ZM158.513 43.5402V39.1202C158.179 38.8666 157.764 38.744 157.346 38.7757C156.318 38.7757 155.623 39.3596 155.623 41.4207C155.623 43.2308 156.207 43.9081 157.258 43.9081C157.704 43.9123 158.14 43.7843 158.513 43.5402Z" fill="#A39382"/><path d="M163.422 38.8166L163.218 39.9027H162.249V38.2911C163.072 38.0353 163.932 37.9131 164.794 37.9291C166.33 37.9291 167.042 38.5889 167.042 40.0019V43.6746C167.042 44.0599 167.253 44.1534 167.591 44.1534H167.907V44.7372C167.526 44.8966 167.117 44.978 166.704 44.9766C166.453 45.0078 166.201 44.9424 165.997 44.7938C165.793 44.6452 165.653 44.4246 165.606 44.1767H165.518C165.3 44.4378 165.026 44.6478 164.718 44.792C164.409 44.9363 164.072 45.0112 163.732 45.0117C163.475 45.0356 163.216 45.005 162.972 44.9217C162.728 44.8384 162.504 44.7044 162.315 44.5284C162.127 44.3525 161.978 44.1386 161.877 43.9009C161.777 43.6632 161.729 43.4069 161.735 43.1491C161.735 41.9171 162.593 41.5375 163.93 41.2748L165.431 40.977V40.3639C165.431 39.4531 165.232 38.7816 164.018 38.7816C163.819 38.7815 163.62 38.7932 163.422 38.8166ZM165.419 43.6395V41.7419L164.368 41.812C163.609 41.8645 163.346 42.2265 163.346 42.9389C163.346 43.6512 163.656 44.1066 164.368 44.1066C164.566 44.102 164.76 44.0584 164.94 43.9782C165.121 43.898 165.284 43.7829 165.419 43.6395Z" fill="#A39382"/><path d="M168.414 41.6017C168.414 39.0151 169.804 37.9291 171.777 37.9291C172.173 37.9262 172.567 37.9853 172.945 38.1043V35.9906L171.97 35.7804V35.144L174.381 34.8462L174.557 34.9338V43.8497L175.444 44.0541V44.6379L173.249 44.9416L173.079 44.8657V44.1358H173.009C172.782 44.404 172.497 44.6173 172.175 44.7598C171.854 44.9024 171.504 44.9705 171.152 44.9591C169.909 44.9591 168.414 44.2117 168.414 41.6017ZM172.963 43.5402V39.1202C172.629 38.8656 172.213 38.7429 171.795 38.7757C170.773 38.7757 170.072 39.3596 170.072 41.4207C170.072 43.2308 170.656 43.9081 171.707 43.9081C172.153 43.9123 172.59 43.7843 172.963 43.5402Z" fill="#A39382"/><path d="M178.734 44.1533L179.523 43.9139L182.337 35.8154H183.983L186.704 43.9139L187.493 44.1533V44.8248H183.785V44.1533L184.783 43.9139L184.235 42.1623H181.21L180.626 43.9139L181.642 44.1533V44.8248H178.723L178.734 44.1533ZM181.473 41.339H183.972L183.446 39.6807C183.149 38.7524 182.822 37.1292 182.822 37.1292H182.757C182.757 37.1292 182.331 38.7524 182.016 39.6807L181.473 41.339Z" fill="#A39382"/><path d="M188.401 43.0149V39.027L187.52 38.8168V38.192L189.855 37.9526L190.001 38.0402V42.6237C190.001 43.4353 190.24 43.7915 191.105 43.7915C191.571 43.7952 192.031 43.6871 192.448 43.4762V39.027L191.613 38.8168V38.192L193.901 37.9526L194.077 38.0402V43.8499L194.964 44.0542V44.6381L192.681 44.9593L192.523 44.8834V44.0893H192.442C191.881 44.6378 191.13 44.9493 190.346 44.9593C188.968 44.9593 188.401 44.2236 188.401 43.0149Z" fill="#A39382"/><path d="M196.35 43.2073V38.9391H195.398V38.3143L196.35 37.9932V36.4692H197.938V38.0516H199.69V38.9391H197.938V42.927C197.938 43.6861 198.16 43.9488 198.96 43.9488C199.231 43.9506 199.502 43.9212 199.766 43.8612V44.5268C199.288 44.8081 198.744 44.9553 198.189 44.9531C196.998 44.9589 196.35 44.5268 196.35 43.2073Z" fill="#A39382"/><path d="M200.348 41.491C200.348 39.2897 201.807 37.9293 203.629 37.9293C205.679 37.9293 206.957 39.2547 206.957 41.4326C206.957 43.6105 205.48 45.0059 203.67 45.0059C201.621 45.0001 200.348 43.6105 200.348 41.491ZM205.241 41.491C205.241 39.389 204.464 38.7584 203.617 38.7584C202.771 38.7584 202.047 39.3423 202.047 41.3683C202.047 43.3944 202.823 44.1009 203.682 44.1009C204.54 44.1009 205.241 43.5404 205.241 41.5143V41.491ZM202.181 36.5046L204.978 34.7529L205.591 35.9674L202.455 37.0301L202.181 36.5046Z" fill="#A39382"/><path d="M207.607 44.2352L208.495 44.025V39.1204L207.59 38.9102V38.2562L209.867 37.9409L210.03 38.0285V38.7292H210.106C210.761 38.2603 211.538 37.9906 212.343 37.9526C213.51 37.9526 214.164 38.4781 214.164 39.7042V44.025L215.023 44.2352V44.8191H211.741V44.2352L212.541 44.0542V40.1889C212.541 39.3773 212.156 39.1145 211.373 39.1145C210.939 39.1262 210.509 39.207 210.101 39.3539V44.025L210.883 44.206V44.7899H207.602L207.607 44.2352Z" fill="#A39382"/><path d="M215.621 41.4909C215.621 39.2896 217.081 37.9292 218.908 37.9292C220.958 37.9292 222.231 39.2546 222.231 41.4325C222.231 43.6104 220.759 45.0059 218.943 45.0059C216.894 45 215.621 43.6104 215.621 41.4909ZM220.52 41.4909C220.52 39.3889 219.743 38.7583 218.897 38.7583C218.05 38.7583 217.32 39.3422 217.32 41.3683C217.32 43.3944 218.097 44.1009 218.955 44.1009C219.813 44.1009 220.52 43.5403 220.52 41.5143V41.4909Z" fill="#A39382"/><path d="M222.922 44.2352L223.809 44.025V39.1203L222.91 38.9101V38.2562L225.181 37.9409L225.339 38.0285V38.7174H225.421C226.057 38.2247 226.835 37.9485 227.64 37.9292C227.953 37.9055 228.267 37.9735 228.543 38.1248C228.818 38.2762 229.044 38.5044 229.193 38.7817H229.251C229.924 38.2656 230.739 37.9681 231.587 37.9292C231.828 37.898 232.073 37.9223 232.303 38.0003C232.533 38.0783 232.742 38.2079 232.915 38.3792C233.087 38.5505 233.218 38.7589 233.298 38.9886C233.377 39.2182 233.403 39.463 233.373 39.7042V44.025L234.226 44.2352V44.819H230.962V44.2352L231.756 44.0541V40.1888C231.756 39.3539 231.377 39.1028 230.588 39.1028C230.161 39.1151 229.738 39.2 229.339 39.3539C229.383 39.5214 229.401 39.6947 229.391 39.8677V44.0541L230.162 44.2352V44.819H226.992V44.2352L227.78 44.0541V40.1888C227.78 39.3539 227.406 39.1028 226.665 39.1028C226.238 39.1086 225.816 39.1938 225.421 39.3539V44.025L226.203 44.206V44.7898H222.922V44.2352Z" fill="#A39382"/><path d="M236.473 38.8166L236.274 39.9026H235.305V38.2911C236.138 38.0423 237.005 37.928 237.874 37.9524C239.41 37.9524 240.122 38.6122 240.122 40.0252V43.6745C240.122 44.0599 240.332 44.1533 240.671 44.1533H240.98V44.7372C240.601 44.8961 240.194 44.9775 239.783 44.9766C239.533 45.0077 239.28 44.9424 239.076 44.7938C238.872 44.6452 238.733 44.4245 238.686 44.1767H238.598C238.379 44.4377 238.106 44.6477 237.797 44.792C237.489 44.9362 237.152 45.0112 236.811 45.0116C236.554 45.0371 236.295 45.0081 236.05 44.9263C235.805 44.8446 235.58 44.712 235.39 44.5372C235.2 44.3625 235.049 44.1495 234.946 43.9123C234.844 43.6751 234.793 43.4189 234.797 43.1607C234.797 41.9287 235.661 41.5492 236.992 41.2864L238.499 40.9886V40.3639C238.499 39.453 238.295 38.7816 237.086 38.7816C236.881 38.781 236.676 38.7927 236.473 38.8166ZM238.476 43.6395V41.7419L237.425 41.8119C236.66 41.8645 236.397 42.2265 236.397 42.9388C236.397 43.6512 236.712 44.1066 237.425 44.1066C237.626 44.1051 237.825 44.0629 238.009 43.9827C238.194 43.9024 238.361 43.7857 238.499 43.6395H238.476Z" fill="#A39382"/><path d="M244.453 41.6017C244.453 39.0151 245.837 37.9291 247.81 37.9291C248.206 37.9269 248.6 37.986 248.978 38.1043V35.9906L248.003 35.7804V35.144L250.415 34.8462L250.59 34.9338V43.8497L251.477 44.0541V44.6379L249.317 44.9591L249.153 44.8832V44.1358H249.077C248.85 44.4087 248.564 44.6263 248.24 44.772C247.917 44.9177 247.564 44.9877 247.209 44.9766C245.936 44.9591 244.453 44.2117 244.453 41.6017ZM249.002 43.5402V39.1202C248.667 38.8666 248.252 38.744 247.834 38.7757C246.806 38.7757 246.111 39.3596 246.111 41.4207C246.111 43.2308 246.695 43.9081 247.746 43.9081C248.192 43.9123 248.629 43.7843 249.002 43.5402Z" fill="#A39382"/><path d="M251.988 41.3916C251.988 39.2137 253.349 37.9292 255.176 37.9292C257.173 37.9292 258.037 39.1262 258.037 41.5143H253.676C253.722 43.2659 254.499 43.9782 255.76 43.9782C256.425 43.9765 257.084 43.862 257.71 43.6396V44.3753C257.008 44.8034 256.197 45.0202 255.375 45C253.051 44.9592 251.988 43.5637 251.988 41.3916ZM256.327 40.7669C256.327 39.2663 255.889 38.7642 255.1 38.7642C254.312 38.7642 253.74 39.348 253.652 40.7669H256.327Z" fill="#A39382"/><path d="M258.66 44.2351L259.553 44.0249V35.9906L258.59 35.7804V35.144L261.001 34.8462L261.165 34.9338V44.0249L262.035 44.2351V44.8189H258.66V44.2351Z" fill="#A39382"/><path d="M265.557 44.1533L266.59 43.9139V36.7205L265.557 36.4927V35.8154H269.171C271.693 35.8154 272.627 36.7905 272.627 38.4429C272.627 40.288 271.518 41.1405 269.568 41.1405C269.162 41.1482 268.757 41.111 268.359 41.0295V43.9139L269.597 44.1533V44.8248H265.551L265.557 44.1533ZM268.365 40.288C268.683 40.3476 269.006 40.3731 269.329 40.3639C270.403 40.3639 270.876 39.78 270.876 38.5247C270.876 37.2693 270.339 36.773 269.288 36.773H268.365V40.288Z" fill="#A39382"/><path d="M272.949 41.3916C272.949 39.2137 274.31 37.9292 276.131 37.9292C278.134 37.9292 278.992 39.1262 278.992 41.5143H274.637C274.683 43.2659 275.46 43.9782 276.721 43.9782C277.386 43.9759 278.045 43.8614 278.671 43.6396V44.3753C277.969 44.8043 277.158 45.0212 276.336 45C274.012 44.9592 272.949 43.5637 272.949 41.3916ZM277.299 40.7669C277.299 39.2663 276.861 38.7642 276.073 38.7642C275.285 38.7642 274.707 39.348 274.625 40.7669H277.299Z" fill="#A39382"/><path d="M279.769 44.2353L280.657 44.0251V39.1205L279.758 38.9103V38.2563L282.017 37.9527L282.181 38.0403V39.0037H282.257C282.444 38.7076 282.696 38.4587 282.995 38.2764C283.294 38.0941 283.631 37.9833 283.979 37.9527C284.097 37.9494 284.215 37.9611 284.33 37.9877V39.4416C284.153 39.4034 283.973 39.3858 283.792 39.3891C283.266 39.3525 282.74 39.4573 282.269 39.6927V44.0251L283.29 44.2353V44.8192H279.787L279.769 44.2353Z" fill="#A39382"/><path d="M285.973 43.015V39.027L285.086 38.8169V38.1921L287.421 37.9527L287.567 38.0403V42.6238C287.567 43.4354 287.807 43.7915 288.671 43.7915C289.139 43.7939 289.601 43.6859 290.02 43.4763V39.027L289.179 38.8169V38.1921L291.468 37.9527L291.643 38.0403V43.8499L292.53 44.0543V44.6382L290.253 44.9418L290.09 44.8659V44.0893H290.02C289.448 44.6477 288.682 44.9618 287.883 44.9652C286.54 44.9593 285.973 44.2236 285.973 43.015ZM287.386 36.528L290.183 34.7764L290.773 36.02L287.638 37.0827L287.386 36.528Z" fill="#A39382"/><path d="M123.818 22.4504H112L109.577 29.1008H103.586L114.75 0H121.319L132.412 29.1008H126.241L123.818 22.4504ZM113.891 17.2772H121.937L117.914 6.27676L113.891 17.2772Z" fill="#FF8F1C"/><path d="M147.168 26.923C146.065 28.8089 143.723 29.6322 141.592 29.6322C136.705 29.6322 133.914 26.0588 133.914 21.668V8.9043H139.373V20.582C139.373 22.8358 140.541 24.6692 143.069 24.6692C145.487 24.6692 146.882 23.0285 146.882 20.6871V8.9043H152.341V25.4458C152.343 26.6669 152.411 27.8871 152.546 29.1009H147.338C147.221 28.3809 147.164 27.6524 147.168 26.923Z" fill="#FF8F1C"/><path d="M164.488 8.90409H168.575V13.7503H164.488V22.1875C164.488 23.9391 165.311 24.523 166.87 24.523C167.435 24.5287 167.998 24.4739 168.551 24.3595V28.8788C167.567 29.2395 166.522 29.406 165.474 29.3693C161.533 29.3693 159.052 27.0337 159.052 23.1334V13.7503H155.402V8.90409H156.43C158.561 8.90409 159.548 7.51444 159.548 5.7044V2.87256H164.47L164.488 8.90409Z" fill="#FF8F1C"/><path d="M191.904 18.9998C191.904 25.2006 187.344 29.7141 181.312 29.7141C175.281 29.7141 170.727 25.2006 170.727 18.9998C170.727 12.7989 175.281 8.29134 181.312 8.29134C187.344 8.29134 191.904 12.7639 191.904 18.9998ZM186.439 18.9998C186.439 15.187 183.981 13.2602 181.312 13.2602C178.644 13.2602 176.18 15.187 176.18 18.9998C176.18 22.8126 178.644 24.7452 181.312 24.7452C183.981 24.7452 186.439 22.8184 186.439 18.9998ZM182.936 6.48713H178.545L182.252 0.327148H188.494L182.936 6.48713Z" fill="#FF8F1C"/><path d="M200.436 29.101H194.977V8.90438H200.272V11.4092C201.504 9.31894 203.928 8.37305 206.111 8.37305C211.121 8.37305 213.416 11.9464 213.416 16.3781V29.101H207.956V17.3182C207.956 15.0644 206.853 13.301 204.225 13.301C201.843 13.301 200.448 15.1461 200.448 17.4816L200.436 29.101Z" fill="#FF8F1C"/><path d="M237.576 18.9995C237.576 25.2003 233.022 29.7137 226.984 29.7137C220.947 29.7137 216.398 25.2003 216.398 18.9995C216.398 12.7986 220.959 8.29102 226.984 8.29102C233.01 8.29102 237.576 12.7636 237.576 18.9995ZM232.117 18.9995C232.117 15.1867 229.658 13.2599 226.984 13.2599C224.31 13.2599 221.875 15.1809 221.875 18.9995C221.875 22.8181 224.339 24.7449 227.002 24.7449C229.664 24.7449 232.117 22.8181 232.117 18.9995Z" fill="#FF8F1C"/><path d="M240.652 29.1008V8.90424H245.866V11.3682C246.97 9.40054 249.562 8.33203 251.775 8.33203C254.525 8.33203 256.738 9.4998 257.766 11.6952C259.366 9.23705 261.503 8.33203 264.189 8.33203C267.926 8.33203 271.493 10.5917 271.493 16.0043V29.1008H266.203V17.1137C266.203 14.9416 265.135 13.3009 262.63 13.3009C260.294 13.3009 258.899 15.1051 258.899 17.2771V29.1008H253.48V17.1137C253.48 14.9416 252.371 13.3009 249.913 13.3009C247.455 13.3009 246.135 15.0525 246.135 17.2771V29.1008H240.652Z" fill="#FF8F1C"/><path d="M280.463 17.4814L285.426 16.7457C286.594 16.5822 286.944 16.0041 286.944 15.3093C286.944 13.873 285.835 12.6818 283.54 12.6818C281.158 12.6818 279.844 14.1999 279.681 15.9633L274.84 14.9415C275.167 11.7768 278.081 8.29102 283.499 8.29102C289.922 8.29102 292.258 11.8994 292.258 15.9633V25.8893C292.264 26.9623 292.346 28.0334 292.503 29.0948H287.493C287.354 28.2947 287.285 27.4839 287.289 26.6717C286.267 28.2716 284.334 29.667 281.339 29.667C277.03 29.667 274.402 26.7476 274.402 23.5946C274.426 19.9862 277.094 17.9777 280.463 17.4814ZM286.944 20.9321V20.0271L282.39 20.7219C280.994 20.9321 279.885 21.7087 279.885 23.2677C279.885 24.4354 280.749 25.6032 282.513 25.6032C284.813 25.609 286.944 24.523 286.944 20.9321Z" fill="#FF8F1C"/></g><defs><clipPath id="clip0_1400_22134"><rect width="292.55" height="45" fill="white"/></clipPath></defs></svg>